<svg width="428" height="483" viewBox="0 0 428 483" fill="none" xmlns="http://www.w3.org/2000/svg">
<circle cx="214" cy="214" r="199" stroke="#5E6737" stroke-width="2"/>
<circle cx="214" cy="214" r="206" stroke="#5E6737" stroke-width="2"/>
<circle cx="214" cy="214" r="213" stroke="#5E6737" stroke-width="2"/>
<path d="M148.576 347.304C146.455 351.432 143.158 354.7 138.686 357.108C134.271 359.516 129.197 360.72 123.464 360.72C117.043 360.72 111.395 359.287 106.522 356.42C101.706 353.496 97.922 349.397 95.17 344.122C92.4753 338.79 91.128 332.512 91.128 325.288C91.128 318.179 92.4753 311.987 95.17 306.712C97.922 301.437 101.706 297.367 106.522 294.5C111.395 291.576 117.014 290.114 123.378 290.114C127.449 290.114 131.147 290.687 134.472 291.834C137.797 292.981 140.635 294.557 142.986 296.564C145.337 298.571 147.057 300.864 148.146 303.444L145.308 306.024C142.843 301.609 139.718 298.542 135.934 296.822C132.15 295.102 127.965 294.242 123.378 294.242C117.759 294.242 112.829 295.532 108.586 298.112C104.401 300.692 101.133 304.304 98.782 308.948C96.4313 313.592 95.256 319.039 95.256 325.288C95.256 331.652 96.4313 337.185 98.782 341.886C101.133 346.587 104.429 350.228 108.672 352.808C112.915 355.388 117.845 356.678 123.464 356.678C127.936 356.678 132.035 355.789 135.762 354.012C139.546 352.235 142.929 349.081 145.91 344.552L148.576 347.304ZM142.212 340.854C139.976 344.294 137.31 346.845 134.214 348.508C131.118 350.113 127.993 350.916 124.84 350.916C121.056 350.916 117.559 349.97 114.348 348.078C111.195 346.186 108.672 343.348 106.78 339.564C104.888 335.78 103.942 331.021 103.942 325.288C103.942 319.784 104.888 315.14 106.78 311.356C108.672 307.572 111.195 304.734 114.348 302.842C117.501 300.893 120.97 299.918 124.754 299.918C127.793 299.918 130.831 300.721 133.87 302.326C136.909 303.874 139.403 306.339 141.352 309.722L138.342 312.474C137.654 310.926 136.593 309.521 135.16 308.26C133.784 306.941 132.179 305.909 130.344 305.164C128.509 304.419 126.646 304.046 124.754 304.046C121.658 304.046 118.849 304.877 116.326 306.54C113.803 308.203 111.797 310.611 110.306 313.764C108.815 316.917 108.07 320.759 108.07 325.288C108.07 329.989 108.815 333.945 110.306 337.156C111.797 340.367 113.803 342.775 116.326 344.38C118.849 345.985 121.687 346.788 124.84 346.788C126.732 346.788 128.595 346.415 130.43 345.67C132.322 344.867 134.042 343.807 135.59 342.488C137.138 341.112 138.313 339.535 139.116 337.758L142.212 340.854ZM189.71 296.048H175.778L154.708 359H150.408L172.768 291.92H192.72L215.08 359H210.608L189.71 296.048ZM180.078 302.842H185.066L195.386 334.232H169.758L180.078 302.842ZM189.71 330.104C189.424 329.187 188.965 327.811 188.334 325.976C187.704 324.141 187.016 322.106 186.27 319.87C185.525 317.577 184.837 315.312 184.206 313.076C183.576 310.783 183.117 308.747 182.83 306.97H182.314C182.028 308.69 181.569 310.697 180.938 312.99C180.365 315.226 179.706 317.491 178.96 319.784C178.215 322.02 177.527 324.084 176.896 325.976C176.266 327.811 175.807 329.187 175.52 330.104H189.71ZM194.01 343.262H171.306L165.974 359H161.674L168.382 339.134H197.02L203.47 359H199.17L194.01 343.262ZM222.644 291.92H267.45V296.048H226.772V359H222.644V291.92ZM234.34 300.864H267.45V304.992H238.468V320.644H263.752V324.772H234.34V300.864ZM234.34 329.244H263.752V333.372H238.468V359H234.34V329.244ZM305.594 360.72C299.402 360.72 293.984 359.287 289.34 356.42C284.696 353.553 281.084 349.483 278.504 344.208C275.924 338.876 274.634 332.569 274.634 325.288C274.634 318.179 275.924 311.987 278.504 306.712C281.084 301.437 284.696 297.367 289.34 294.5C293.984 291.576 299.402 290.114 305.594 290.114C311.786 290.114 317.175 291.576 321.762 294.5C326.406 297.424 329.989 301.523 332.512 306.798C335.035 312.073 336.296 318.236 336.296 325.288C336.296 332.569 335.035 338.876 332.512 344.208C329.989 349.483 326.406 353.553 321.762 356.42C317.175 359.287 311.786 360.72 305.594 360.72ZM305.594 356.678C311.041 356.678 315.742 355.388 319.698 352.808C323.654 350.228 326.721 346.587 328.9 341.886C331.079 337.185 332.168 331.652 332.168 325.288C332.168 319.096 331.079 313.678 328.9 309.034C326.721 304.39 323.654 300.778 319.698 298.198C315.742 295.561 311.041 294.242 305.594 294.242C300.147 294.242 295.417 295.532 291.404 298.112C287.391 300.692 284.266 304.304 282.03 308.948C279.851 313.592 278.762 319.039 278.762 325.288C278.762 331.652 279.851 337.185 282.03 341.886C284.266 346.587 287.391 350.228 291.404 352.808C295.417 355.388 300.147 356.678 305.594 356.678ZM305.594 351.432C302.154 351.432 298.972 350.429 296.048 348.422C293.181 346.415 290.888 343.491 289.168 339.65C287.448 335.751 286.588 330.964 286.588 325.288C286.588 319.555 287.505 314.796 289.34 311.012C291.175 307.171 293.525 304.304 296.392 302.412C299.316 300.463 302.383 299.488 305.594 299.488C309.034 299.488 312.159 300.463 314.968 302.412C317.835 304.304 320.099 307.171 321.762 311.012C323.482 314.796 324.342 319.555 324.342 325.288C324.342 330.964 323.453 335.751 321.676 339.65C319.899 343.491 317.577 346.415 314.71 348.422C311.901 350.429 308.862 351.432 305.594 351.432ZM305.594 347.304C308.289 347.304 310.725 346.444 312.904 344.724C315.14 343.004 316.917 340.51 318.236 337.242C319.555 333.917 320.214 329.932 320.214 325.288C320.214 318.293 318.838 312.933 316.086 309.206C313.334 305.479 309.837 303.616 305.594 303.616C302.957 303.616 300.491 304.447 298.198 306.11C295.962 307.773 294.156 310.209 292.78 313.42C291.404 316.631 290.716 320.587 290.716 325.288C290.716 329.932 291.347 333.917 292.608 337.242C293.927 340.51 295.704 343.004 297.94 344.724C300.233 346.444 302.785 347.304 305.594 347.304Z" fill="#5E6737"/>
<path d="M295.167 216.671V206.333H264.542C258.423 206.35 252.45 208.199 247.392 211.642L246.473 212.356L245.248 213.377L244.329 213.989C240.432 217.445 237.481 221.836 235.754 226.75H203.292C189.159 226.75 175.343 222.559 163.592 214.707C151.84 206.855 142.681 195.695 137.273 182.637C131.864 169.58 130.449 155.212 133.206 141.351C135.964 127.489 142.769 114.757 152.763 104.763C162.757 94.7692 175.489 87.9635 189.351 85.2063C203.212 82.449 217.58 83.8641 230.638 89.2727C243.695 94.6812 254.855 103.84 262.707 115.591C270.559 127.343 274.75 141.158 274.75 155.292V175.708H244.125C244.125 159.464 237.672 143.885 226.185 132.398C214.699 120.911 199.12 114.458 182.875 114.458H162.458V134.875C162.458 151.119 168.911 166.699 180.398 178.185C191.885 189.672 207.464 196.125 223.708 196.125H295.167V155.292C295.167 137.12 289.778 119.357 279.683 104.249C269.588 89.1398 255.239 77.3639 238.451 70.4101C221.663 63.4563 203.19 61.6369 185.368 65.1819C167.546 68.7269 151.175 77.4772 138.326 90.3261C125.477 103.175 116.727 119.546 113.182 137.368C109.637 155.19 111.456 173.663 118.41 190.451C125.364 207.239 137.14 221.587 152.249 231.683C167.357 241.778 185.121 247.167 203.292 247.167H235.754C237.86 253.124 241.757 258.283 246.911 261.939C252.065 265.594 258.223 267.565 264.542 267.583H295.167V257.956H313.516V244.582H295.167V230.626H313.516V216.671H295.167Z" fill="#5E6737"/>
<path d="M78.7729 430.667C78.5022 430.497 78.4521 430.276 78.6227 430.005L95.7671 402.796C95.9377 402.526 96.1583 402.476 96.4291 402.646C96.7269 402.834 96.7905 403.063 96.6199 403.334L79.4755 430.543C79.305 430.814 79.0708 430.855 78.7729 430.667Z" fill="#5E6737"/>
<path d="M93.3258 439.207C92.068 438.506 91.3153 437.721 91.0678 436.85C90.8203 435.979 91.086 434.845 91.8649 433.448L100.183 418.521L97.3322 416.932C97.0526 416.776 96.9985 416.545 97.1699 416.237C97.3257 415.958 97.5433 415.896 97.8228 416.052L100.674 417.641L103.618 412.358C103.774 412.078 104.006 412.024 104.313 412.195C104.593 412.351 104.654 412.569 104.499 412.848L101.555 418.131L104.406 419.72C104.685 419.876 104.747 420.094 104.591 420.373C104.42 420.681 104.194 420.756 103.915 420.601L101.064 419.012L92.7687 433.896C92.1456 435.015 91.9129 435.892 92.0706 436.53C92.2283 437.167 92.8102 437.766 93.8165 438.327C94.124 438.498 94.1999 438.724 94.0441 439.003C93.8727 439.311 93.6333 439.379 93.3258 439.207Z" fill="#5E6737"/>
<path d="M121.057 452.111C119.866 451.642 118.982 450.83 118.405 449.675C117.858 448.531 117.729 447.328 118.019 446.067C118.048 445.906 118.124 445.799 118.249 445.745C118.415 445.673 118.572 445.666 118.721 445.724C118.959 445.818 119.056 446.011 119.01 446.302C118.784 447.314 118.884 448.282 119.311 449.206C119.768 450.142 120.473 450.798 121.426 451.173C121.962 451.384 122.545 451.476 123.175 451.448C123.834 451.433 124.454 451.212 125.034 450.787C125.655 450.344 126.153 449.646 126.528 448.693C126.95 447.621 127.06 446.598 126.859 445.625C126.687 444.663 126.298 443.685 125.692 442.69L125.008 441.544C124.06 439.933 123.482 438.519 123.273 437.302C123.064 436.085 123.194 434.881 123.662 433.69C124.248 432.201 125.119 431.254 126.276 430.849C127.462 430.456 128.561 430.459 129.574 430.857C130.437 431.197 131.097 431.749 131.553 432.513C132.021 433.247 132.263 434.116 132.281 435.121C132.294 435.263 132.226 435.391 132.078 435.505C131.96 435.63 131.811 435.658 131.633 435.588C131.424 435.506 131.311 435.358 131.292 435.144C131.24 433.439 130.545 432.323 129.205 431.795C128.282 431.432 127.399 431.446 126.558 431.837C125.728 432.198 125.09 432.945 124.645 434.076C124.211 435.178 124.075 436.225 124.235 437.216C124.437 438.19 124.987 439.455 125.888 441.013L126.626 442.283C127.268 443.361 127.696 444.458 127.91 445.574C128.124 446.69 127.991 447.859 127.511 449.079C126.937 450.539 126.042 451.545 124.827 452.098C123.624 452.622 122.367 452.626 121.057 452.111Z" fill="#5E6737"/>
<path d="M139.958 458.74C138.586 458.302 137.693 457.681 137.278 456.877C136.863 456.072 136.899 454.908 137.385 453.384L142.583 437.106L139.473 436.113C139.168 436.015 139.069 435.799 139.177 435.464C139.274 435.159 139.475 435.055 139.78 435.153L142.889 436.145L144.729 430.384C144.826 430.079 145.042 429.98 145.378 430.087C145.682 430.184 145.786 430.386 145.689 430.69L143.849 436.452L146.959 437.445C147.264 437.542 147.367 437.743 147.27 438.048C147.163 438.383 146.957 438.502 146.652 438.405L143.543 437.412L138.36 453.645C137.971 454.864 137.917 455.771 138.197 456.364C138.478 456.958 139.167 457.43 140.265 457.78C140.6 457.887 140.719 458.093 140.622 458.398C140.515 458.733 140.293 458.847 139.958 458.74Z" fill="#5E6737"/>
<path d="M152.085 462.12C150.904 461.834 150.053 461.2 149.533 460.218C149.052 459.213 148.98 458.011 149.319 456.611C150.048 453.594 152.099 451.785 155.47 451.185L160.005 450.405L161.077 445.973C161.754 443.173 161.128 441.54 159.199 441.074C157.706 440.713 156.174 441.33 154.603 442.926C154.472 443.059 154.329 443.106 154.174 443.069C153.832 442.986 153.698 442.789 153.773 442.478C153.796 442.385 153.853 442.283 153.946 442.174C155.678 440.321 157.508 439.628 159.436 440.094C162.018 440.719 162.891 442.757 162.056 446.21L158.367 461.466C158.194 462.181 158.388 462.607 158.947 462.742C159.258 462.817 159.549 462.772 159.82 462.607C159.935 462.536 160.056 462.516 160.18 462.546C160.522 462.629 160.652 462.841 160.569 463.183C160.539 463.308 160.466 463.405 160.35 463.476C159.848 463.783 159.301 463.865 158.71 463.722C157.497 463.428 157.056 462.597 157.387 461.229L157.511 460.716C156.252 461.432 155.204 461.886 154.367 462.079C153.561 462.279 152.801 462.293 152.085 462.12ZM150.345 456.859C150.067 458.01 150.101 458.957 150.449 459.699C150.796 460.442 151.42 460.922 152.322 461.14C152.976 461.298 153.709 461.261 154.522 461.03C155.335 460.798 156.426 460.305 157.794 459.549L159.745 451.478L155.676 452.173C152.754 452.684 150.977 454.247 150.345 456.859Z" fill="#5E6737"/>
<path d="M170.851 466.125C170.535 466.075 170.402 465.892 170.452 465.576L173.893 443.912C173.943 443.596 174.126 443.463 174.442 443.513C174.79 443.568 174.939 443.754 174.889 444.07L174.587 445.966C175.37 445.118 176.155 444.563 176.942 444.299C177.734 444.003 178.557 443.923 179.41 444.059C182.033 444.476 183.049 446.548 182.457 450.278C182.396 450.657 182.208 450.822 181.892 450.771C181.544 450.716 181.401 450.499 181.461 450.12C181.732 448.413 181.667 447.188 181.267 446.444C180.872 445.668 180.2 445.205 179.252 445.054C178.272 444.899 177.356 445.061 176.502 445.541C175.685 445.994 174.969 446.626 174.354 447.436L171.448 465.734C171.398 466.05 171.199 466.181 170.851 466.125Z" fill="#5E6737"/>
<path d="M194.58 469.093C193.146 468.964 192.139 468.552 191.559 467.858C190.978 467.163 190.76 466.019 190.903 464.425L192.435 447.406L189.184 447.113C188.865 447.085 188.721 446.895 188.753 446.544C188.782 446.226 188.955 446.081 189.274 446.109L192.525 446.402L193.067 440.378C193.095 440.059 193.285 439.916 193.636 439.947C193.954 439.976 194.099 440.15 194.071 440.469L193.529 446.492L196.78 446.785C197.098 446.813 197.243 446.987 197.215 447.306C197.183 447.656 197.008 447.817 196.689 447.789L193.439 447.496L191.912 464.468C191.797 465.742 191.941 466.639 192.344 467.157C192.748 467.675 193.523 467.986 194.67 468.089C195.021 468.121 195.182 468.296 195.153 468.615C195.122 468.965 194.931 469.125 194.58 469.093Z" fill="#5E6737"/>
<path d="M207.949 469.761C206.669 469.731 205.56 469.272 204.621 468.385C203.714 467.499 203.18 466.414 203.018 465.13C202.99 464.969 203.025 464.842 203.123 464.748C203.254 464.624 203.4 464.563 203.56 464.567C203.816 464.573 203.972 464.721 204.029 465.01C204.165 466.038 204.592 466.912 205.311 467.634C206.062 468.356 206.949 468.729 207.973 468.754C208.549 468.767 209.128 468.653 209.71 468.411C210.324 468.17 210.83 467.75 211.228 467.151C211.659 466.521 211.887 465.694 211.912 464.671C211.939 463.519 211.691 462.521 211.167 461.676C210.675 460.832 209.974 460.047 209.063 459.321L208.027 458.48C206.583 457.293 205.553 456.164 204.939 455.093C204.324 454.022 204.032 452.847 204.063 451.567C204.101 449.968 204.594 448.779 205.541 448.001C206.52 447.225 207.553 446.849 208.641 446.875C209.568 446.898 210.378 447.189 211.068 447.75C211.76 448.278 212.287 449.011 212.648 449.948C212.709 450.078 212.69 450.221 212.59 450.379C212.522 450.537 212.392 450.614 212.2 450.61C211.976 450.604 211.819 450.504 211.727 450.31C211.093 448.727 210.056 447.917 208.616 447.883C207.625 447.859 206.801 448.176 206.145 448.832C205.49 449.457 205.148 450.377 205.119 451.592C205.09 452.776 205.322 453.806 205.813 454.682C206.337 455.527 207.289 456.526 208.67 457.679L209.8 458.618C210.773 459.41 211.552 460.293 212.137 461.267C212.722 462.241 212.999 463.384 212.967 464.696C212.93 466.263 212.436 467.516 211.485 468.454C210.535 469.359 209.356 469.795 207.949 469.761Z" fill="#5E6737"/>
<path d="M240.999 468.507C240.714 468.544 240.518 468.408 240.414 468.099L235.722 446.589C235.618 446.28 235.755 446.1 236.136 446.051C236.422 446.014 236.617 446.149 236.722 446.458L241.217 466.832C242.173 465.256 242.946 463.88 243.535 462.706C244.156 461.528 244.635 460.498 244.971 459.615C244.363 458.661 243.91 457.785 243.612 456.984C243.346 456.18 243.165 455.413 243.07 454.683C242.913 453.477 242.932 452.507 243.126 451.771C243.348 451 243.761 450.575 244.364 450.497C244.967 450.418 245.459 450.725 245.839 451.418C246.248 452.075 246.53 453.006 246.687 454.212C246.783 454.941 246.789 455.731 246.706 456.581C246.655 457.427 246.457 458.388 246.114 459.466C246.665 460.233 247.377 461.108 248.247 462.092C249.149 463.072 250.264 464.201 251.593 465.48L250.716 444.635C250.738 444.309 250.891 444.128 251.177 444.09C251.558 444.041 251.737 444.179 251.715 444.504L252.694 466.498C252.672 466.824 252.518 467.005 252.232 467.043C252.2 467.047 252.137 467.055 252.042 467.067C251.947 467.08 251.843 467.029 251.731 466.914C250.308 465.648 249.109 464.497 248.135 463.462C247.161 462.427 246.345 461.485 245.685 460.635C245.266 461.626 244.718 462.746 244.042 463.996C243.366 465.245 242.502 466.665 241.45 468.254C241.372 468.393 241.285 468.469 241.19 468.482C241.126 468.49 241.063 468.498 240.999 468.507ZM244.07 454.553C244.144 455.124 244.27 455.721 244.448 456.343C244.654 456.929 244.967 457.598 245.387 458.35C245.601 457.516 245.717 456.791 245.733 456.175C245.777 455.524 245.762 454.913 245.688 454.342C245.576 453.485 245.39 452.799 245.129 452.285C244.869 451.77 244.659 451.523 244.5 451.544C244.342 451.565 244.202 451.857 244.082 452.421C243.962 452.986 243.958 453.696 244.07 454.553Z" fill="#5E6737"/>
<path d="M260.295 439.672C259.982 439.737 259.793 439.612 259.728 439.299L258.768 434.645C258.704 434.331 258.828 434.142 259.142 434.078C259.486 434.007 259.691 434.128 259.756 434.441L260.715 439.095C260.78 439.409 260.64 439.601 260.295 439.672ZM265.443 464.635C265.13 464.699 264.941 464.575 264.876 464.261L260.446 442.778C260.381 442.464 260.505 442.275 260.819 442.21C261.164 442.139 261.368 442.261 261.433 442.574L265.863 464.058C265.928 464.371 265.788 464.564 265.443 464.635Z" fill="#5E6737"/>
<path d="M281.853 460.706C280.461 461.073 279.373 461.028 278.592 460.572C277.81 460.116 277.216 459.114 276.809 457.566L272.462 441.041L269.305 441.871C268.996 441.952 268.796 441.823 268.707 441.482C268.625 441.173 268.739 440.977 269.049 440.896L272.205 440.066L270.667 434.217C270.586 433.907 270.715 433.708 271.055 433.618C271.365 433.537 271.56 433.651 271.642 433.96L273.18 439.809L276.337 438.979C276.646 438.898 276.842 439.012 276.923 439.321C277.013 439.662 276.903 439.872 276.593 439.954L273.437 440.784L277.771 457.264C278.097 458.502 278.537 459.296 279.093 459.646C279.648 459.996 280.483 460.025 281.597 459.732C281.937 459.642 282.148 459.752 282.23 460.062C282.319 460.402 282.194 460.617 281.853 460.706Z" fill="#5E6737"/>
<path d="M291.939 457.713C291.635 457.816 291.433 457.716 291.33 457.413L280.646 425.911C280.543 425.608 280.643 425.405 280.946 425.303C281.279 425.19 281.498 425.285 281.6 425.588L285.855 438.134C286.153 437.019 286.589 436.162 287.163 435.562C287.726 434.931 288.417 434.477 289.235 434.2C291.75 433.347 293.578 434.602 294.719 437.966L300.285 454.376C300.388 454.679 300.272 454.887 299.939 455C299.636 455.103 299.433 455.003 299.33 454.699L293.765 438.29C293.261 436.805 292.664 435.841 291.973 435.4C291.273 434.928 290.468 434.846 289.559 435.154C288.619 435.473 287.884 436.043 287.352 436.866C286.84 437.648 286.5 438.54 286.333 439.543L292.284 457.089C292.387 457.392 292.272 457.6 291.939 457.713Z" fill="#5E6737"/>
<path d="M329.448 442.502C327.085 443.715 325.093 442.742 323.47 439.583L315.552 424.169C315.406 423.885 315.489 423.662 315.803 423.501C316.087 423.355 316.303 423.424 316.449 423.709L324.366 439.122C325.083 440.517 325.822 441.396 326.585 441.76C327.333 442.095 328.133 442.044 328.987 441.605C329.87 441.152 330.507 440.501 330.898 439.652C331.304 438.761 331.515 437.806 331.533 436.79L323.067 420.309C322.921 420.025 323.004 419.802 323.317 419.641C323.602 419.495 323.817 419.564 323.963 419.849L333.986 439.361C334.133 439.646 334.063 439.861 333.779 440.007C333.466 440.168 333.236 440.106 333.09 439.822L332.212 438.114C332.082 439.26 331.784 440.186 331.32 440.893C330.84 441.571 330.216 442.107 329.448 442.502Z" fill="#5E6737"/>
<path d="M346.876 432.482C345.785 433.152 344.605 433.369 343.335 433.135C342.092 432.883 341.054 432.263 340.221 431.272C340.11 431.152 340.07 431.026 340.102 430.894C340.144 430.718 340.233 430.589 340.37 430.505C340.588 430.371 340.8 430.41 341.005 430.622C341.677 431.411 342.51 431.913 343.506 432.129C344.529 432.327 345.476 432.159 346.349 431.623C346.84 431.322 347.264 430.912 347.621 430.392C348.006 429.856 348.203 429.228 348.212 428.509C348.232 427.746 347.974 426.928 347.439 426.055C346.836 425.074 346.086 424.37 345.187 423.946C344.315 423.504 343.3 423.226 342.141 423.111L340.814 422.968C338.957 422.756 337.48 422.367 336.382 421.801C335.284 421.236 334.4 420.408 333.731 419.317C332.894 417.953 332.662 416.687 333.035 415.52C333.435 414.336 334.099 413.46 335.026 412.891C335.817 412.406 336.655 412.211 337.539 412.306C338.407 412.375 339.247 412.704 340.06 413.294C340.181 413.37 340.243 413.501 340.245 413.687C340.274 413.857 340.207 413.992 340.043 414.093C339.852 414.21 339.666 414.212 339.483 414.098C338.091 413.113 336.781 412.997 335.553 413.75C334.708 414.269 334.188 414.982 333.994 415.89C333.783 416.77 333.995 417.728 334.631 418.765C335.25 419.774 336.004 420.513 336.892 420.981C337.791 421.406 339.133 421.728 340.919 421.946L342.378 422.121C343.625 422.257 344.759 422.575 345.779 423.075C346.799 423.576 347.653 424.385 348.339 425.503C349.159 426.84 349.424 428.16 349.135 429.463C348.83 430.74 348.077 431.746 346.876 432.482Z" fill="#5E6737"/>
</svg>
