<svg width="183" height="53" viewBox="0 0 183 53" fill="none" xmlns="http://www.w3.org/2000/svg">
<path d="M42.752 42.56C41.1733 45.632 38.72 48.064 35.392 49.856C32.1067 51.648 28.3307 52.544 24.064 52.544C19.2853 52.544 15.0827 51.4773 11.456 49.344C7.872 47.168 5.056 44.1173 3.008 40.192C1.00267 36.224 1.43051e-06 31.552 1.43051e-06 26.176C1.43051e-06 20.8853 1.00267 16.2773 3.008 12.352C5.056 8.42666 7.872 5.39733 11.456 3.264C15.0827 1.088 19.264 -3.8147e-06 24 -3.8147e-06C27.0293 -3.8147e-06 29.7813 0.426664 32.256 1.28C34.7307 2.13333 36.8427 3.30666 38.592 4.8C40.3413 6.29333 41.6213 8 42.432 9.92L40.32 11.84C38.4853 8.55466 36.16 6.272 33.344 4.992C30.528 3.712 27.4133 3.072 24 3.072C19.8187 3.072 16.1493 4.032 12.992 5.952C9.87734 7.872 7.44534 10.56 5.696 14.016C3.94667 17.472 3.072 21.5253 3.072 26.176C3.072 30.912 3.94667 35.0293 5.696 38.528C7.44534 42.0267 9.89867 44.736 13.056 46.656C16.2133 48.576 19.8827 49.536 24.064 49.536C27.392 49.536 30.4427 48.8747 33.216 47.552C36.032 46.2293 38.5493 43.8827 40.768 40.512L42.752 42.56ZM38.016 37.76C36.352 40.32 34.368 42.2187 32.064 43.456C29.76 44.6507 27.4347 45.248 25.088 45.248C22.272 45.248 19.6693 44.544 17.28 43.136C14.9333 41.728 13.056 39.616 11.648 36.8C10.24 33.984 9.536 30.4427 9.536 26.176C9.536 22.08 10.24 18.624 11.648 15.808C13.056 12.992 14.9333 10.88 17.28 9.472C19.6267 8.02133 22.208 7.296 25.024 7.296C27.2853 7.296 29.5467 7.89333 31.808 9.088C34.0693 10.24 35.9253 12.0747 37.376 14.592L35.136 16.64C34.624 15.488 33.8347 14.4427 32.768 13.504C31.744 12.5227 30.5493 11.7547 29.184 11.2C27.8187 10.6453 26.432 10.368 25.024 10.368C22.72 10.368 20.6293 10.9867 18.752 12.224C16.8747 13.4613 15.3813 15.2533 14.272 17.6C13.1627 19.9467 12.608 22.8053 12.608 26.176C12.608 29.6747 13.1627 32.6187 14.272 35.008C15.3813 37.3973 16.8747 39.1893 18.752 40.384C20.6293 41.5787 22.7413 42.176 25.088 42.176C26.496 42.176 27.8827 41.8987 29.248 41.344C30.656 40.7467 31.936 39.9573 33.088 38.976C34.24 37.952 35.1147 36.7787 35.712 35.456L38.016 37.76ZM73.3635 4.416H62.9955L47.3155 51.264H44.1155L60.7555 1.344H75.6035L92.2435 51.264H88.9155L73.3635 4.416ZM66.1955 9.472H69.9075L77.5875 32.832H58.5155L66.1955 9.472ZM73.3635 29.76C73.1502 29.0773 72.8088 28.0533 72.3395 26.688C71.8702 25.3227 71.3582 23.808 70.8035 22.144C70.2488 20.4373 69.7368 18.752 69.2675 17.088C68.7982 15.3813 68.4568 13.8667 68.2435 12.544H67.8595C67.6462 13.824 67.3048 15.3173 66.8355 17.024C66.4088 18.688 65.9182 20.3733 65.3635 22.08C64.8088 23.744 64.2968 25.28 63.8275 26.688C63.3582 28.0533 63.0168 29.0773 62.8035 29.76H73.3635ZM76.5635 39.552H59.6675L55.6995 51.264H52.4995L57.4915 36.48H78.8035L83.6035 51.264H80.4035L76.5635 39.552ZM97.8725 1.344H131.217V4.416H100.945V51.264H97.8725V1.344ZM106.577 8H131.217V11.072H109.649V22.72H128.465V25.792H106.577V8ZM106.577 29.12H128.465V32.192H109.649V51.264H106.577V29.12ZM159.603 52.544C154.995 52.544 150.963 51.4773 147.507 49.344C144.051 47.2107 141.363 44.1813 139.443 40.256C137.523 36.288 136.563 31.5947 136.563 26.176C136.563 20.8853 137.523 16.2773 139.443 12.352C141.363 8.42666 144.051 5.39733 147.507 3.264C150.963 1.088 154.995 -3.8147e-06 159.603 -3.8147e-06C164.211 -3.8147e-06 168.221 1.088 171.635 3.264C175.091 5.44 177.757 8.49066 179.635 12.416C181.512 16.3413 182.451 20.928 182.451 26.176C182.451 31.5947 181.512 36.288 179.635 40.256C177.757 44.1813 175.091 47.2107 171.635 49.344C168.221 51.4773 164.211 52.544 159.603 52.544ZM159.603 49.536C163.656 49.536 167.155 48.576 170.099 46.656C173.043 44.736 175.325 42.0267 176.947 38.528C178.568 35.0293 179.379 30.912 179.379 26.176C179.379 21.568 178.568 17.536 176.947 14.08C175.325 10.624 173.043 7.936 170.099 6.016C167.155 4.05333 163.656 3.072 159.603 3.072C155.549 3.072 152.029 4.032 149.043 5.952C146.056 7.872 143.731 10.56 142.067 14.016C140.445 17.472 139.635 21.5253 139.635 26.176C139.635 30.912 140.445 35.0293 142.067 38.528C143.731 42.0267 146.056 44.736 149.043 46.656C152.029 48.576 155.549 49.536 159.603 49.536ZM159.603 45.632C157.043 45.632 154.675 44.8853 152.499 43.392C150.365 41.8987 148.659 39.7227 147.379 36.864C146.099 33.9627 145.459 30.4 145.459 26.176C145.459 21.9093 146.141 18.368 147.507 15.552C148.872 12.6933 150.621 10.56 152.755 9.152C154.931 7.70133 157.213 6.976 159.603 6.976C162.163 6.976 164.488 7.70133 166.579 9.152C168.712 10.56 170.397 12.6933 171.635 15.552C172.915 18.368 173.555 21.9093 173.555 26.176C173.555 30.4 172.893 33.9627 171.571 36.864C170.248 39.7227 168.52 41.8987 166.387 43.392C164.296 44.8853 162.035 45.632 159.603 45.632ZM159.603 42.56C161.608 42.56 163.421 41.92 165.043 40.64C166.707 39.36 168.029 37.504 169.011 35.072C169.992 32.5973 170.483 29.632 170.483 26.176C170.483 20.9707 169.459 16.9813 167.411 14.208C165.363 11.4347 162.76 10.048 159.603 10.048C157.64 10.048 155.805 10.6667 154.099 11.904C152.435 13.1413 151.091 14.9547 150.067 17.344C149.043 19.7333 148.531 22.6773 148.531 26.176C148.531 29.632 149 32.5973 149.939 35.072C150.92 37.504 152.243 39.36 153.907 40.64C155.613 41.92 157.512 42.56 159.603 42.56Z" fill="#5E6737"/>
</svg>
