<svg width="314" height="94" viewBox="0 0 314 94" fill="none" xmlns="http://www.w3.org/2000/svg">
<path d="M304.827 70.3925V65.6667H290.827C288.03 65.6743 285.299 66.5195 282.987 68.0934L282.567 68.4201L282.007 68.8867L281.587 69.1667C279.805 70.7462 278.456 72.754 277.667 75.0001L42 74.6667C35.5392 74.6667 29.2234 72.7508 23.8514 69.1614C18.4794 65.5719 14.2924 60.4701 11.82 54.501C9.34749 48.532 8.70058 41.9638 9.96103 35.6271C11.2215 29.2904 14.3327 23.4697 18.9012 18.9012C23.4697 14.3327 29.2904 11.2215 35.6271 9.96103C41.9638 8.70058 48.532 9.34749 54.501 11.82C60.4701 14.2924 65.5719 18.4794 69.1614 23.8514C72.7508 29.2234 74.6667 35.5392 74.6667 42V51.3334H60.6667C60.6667 43.9073 57.7167 36.7854 52.4657 31.5344C47.2147 26.2833 40.0928 23.3334 32.6667 23.3334H23.3334V32.6667C23.3334 40.0928 26.2833 47.2147 31.5344 52.4657C36.7854 57.7167 43.9073 60.6667 51.3334 60.6667H84V42C84 33.6932 81.5368 25.5729 76.9217 18.6661C72.3067 11.7592 65.7472 6.37596 58.0727 3.19708C50.3982 0.018198 41.9534 -0.813542 33.8062 0.807037C25.659 2.42762 18.1753 6.42773 12.3015 12.3015C6.42773 18.1753 2.42762 25.659 0.807037 33.8062C-0.813542 41.9534 0.0181978 50.3982 3.19708 58.0727C6.37596 65.7472 11.7592 72.3067 18.6661 76.9218C25.5729 81.5368 33.6932 84 42 84L277.667 84.3334C278.629 87.0566 280.411 89.4154 282.767 91.0864C285.123 92.7573 287.938 93.6586 290.827 93.6667H304.827V89.2659H313.215V83.152H304.827V76.7722H313.215V70.3925H304.827Z" fill="#5E6737"/>
</svg>
