<svg width="112" height="112" viewBox="0 0 112 112" fill="none" xmlns="http://www.w3.org/2000/svg">
<path d="M93.3333 79.3924V74.6667H79.3333C76.5363 74.6742 73.8056 75.5194 71.4933 77.0933L71.0733 77.42L70.5133 77.8867L70.0933 78.1667C68.3119 79.7462 66.9627 81.7539 66.1733 84H51.3333C44.8725 84 38.5567 82.0841 33.1847 78.4947C27.8127 74.9052 23.6257 69.8034 21.1533 63.8343C18.6808 57.8653 18.0339 51.2971 19.2943 44.9604C20.5548 38.6237 23.666 32.803 28.2345 28.2345C32.803 23.666 38.6237 20.5548 44.9604 19.2943C51.2971 18.0339 57.8653 18.6808 63.8343 21.1533C69.8034 23.6257 74.9052 27.8127 78.4947 33.1847C82.0841 38.5567 84 44.8725 84 51.3333V60.6667H70C70 53.2406 67.05 46.1187 61.799 40.8677C56.548 35.6167 49.4261 32.6667 42 32.6667H32.6667V42C32.6667 49.4261 35.6167 56.548 40.8677 61.799C46.1187 67.05 53.2406 70 60.6667 70H93.3333V51.3333C93.3333 43.0265 90.8701 34.9062 86.2551 27.9994C81.64 21.0925 75.0805 15.7093 67.406 12.5304C59.7315 9.35151 51.2867 8.51977 43.1395 10.1404C34.9923 11.7609 27.5087 15.761 21.6348 21.6348C15.761 27.5087 11.7609 34.9923 10.1404 43.1395C8.51977 51.2868 9.35151 59.7315 12.5304 67.406C15.7093 75.0805 21.0925 81.64 27.9994 86.2551C34.9062 90.8701 43.0265 93.3333 51.3333 93.3333H66.1733C67.1361 96.0566 68.9177 98.4154 71.2737 100.086C73.6297 101.757 76.4449 102.659 79.3333 102.667H93.3333V98.2658H101.722V92.1519H93.3333V85.7722H101.722V79.3924H93.3333Z" fill="#5E6737"/>
</svg>
